<?xml version="1.0" encoding="UTF-8" standalone="no"?>
<svg
   width="36"
   height="36"
   viewBox="0 0 9.525 9.525"
   version="1.1"
   id="svg8"
   xmlns="http://www.w3.org/2000/svg"
   xmlns:svg="http://www.w3.org/2000/svg"
   xmlns:rdf="http://www.w3.org/1999/02/22-rdf-syntax-ns#"
   xmlns:cc="http://creativecommons.org/ns#"
   xmlns:dc="http://purl.org/dc/elements/1.1/">
  <defs
     id="defs2">
    <linearGradient
       id="linearGradient858">
      <stop
         style="stop-color:#000000;stop-opacity:1;"
         offset="0"
         id="stop856" />
    </linearGradient>
    <linearGradient
       id="linearGradient2280">
      <stop
         style="stop-color:#ffffff;stop-opacity:1;"
         offset="0"
         id="stop2278" />
    </linearGradient>
  </defs>
  <metadata
     id="metadata5">
    <rdf:RDF>
      <cc:Work
         rdf:about="">
        <dc:format>image/svg+xml</dc:format>
        <dc:type
           rdf:resource="http://purl.org/dc/dcmitype/StillImage" />
      </cc:Work>
    </rdf:RDF>
  </metadata>
  <path
     style="fill:#8ab4f8;fill-opacity:1;stroke:none;stroke-width:0;stroke-linecap:round;stroke-linejoin:round;stroke-miterlimit:4;stroke-dasharray:none;stroke-opacity:1"
     d="M 7.5403075,2.7781535 7.9374849,2.3812784 C 7.9398568,2.0191998 7.6623223,1.6726588 7.3042584,1.6067197 7.2512819,1.5972186 7.1974318,1.5943762 7.1441063,1.5875285 L 6.7469286,1.9844034 Z"
     id="path4" />
  <path
     style="fill:#8ab4f8;fill-opacity:1;stroke:none;stroke-width:0;stroke-linecap:round;stroke-linejoin:round;stroke-miterlimit:4;stroke-dasharray:none;stroke-opacity:1"
     d="M 7.3527709,2.9624759 3.7044607,6.6119279 H 2.9104167 V 5.8180598 l 3.64831,-3.6484765 z"
     id="path3" />
  <path
     style="fill:#8ab4f8;fill-opacity:1;stroke:none;stroke-width:0;stroke-linecap:round;stroke-linejoin:round;stroke-miterlimit:4;stroke-dasharray:none;stroke-opacity:1"
     d="M 2.3809046,7.1436288 V 2.3813963 H 5.5563723 L 6.3497514,1.5875284 H 2.3809046 C 1.9544803,1.583757 1.5863828,1.9555668 1.5875258,2.3813963 v 4.7622325 c -0.00359,0.4264875 0.3679757,0.7931336 0.7933788,0.7938667 l 4.7632015,8e-7 c 0.4285365,0.00135 0.7920947,-0.3675911 0.7933778,-0.7938675 l 1e-6,-3.9683645 -0.7933788,0.7928927 v 3.1754718 z"
     id="path2" />
  <path
     style="fill:none;stroke:none;stroke-width:0;stroke-linecap:round;stroke-linejoin:round;stroke-miterlimit:4;stroke-dasharray:none;stroke-opacity:1"
     d="M 0,9.525 H 9.525 V 0 H 0 Z"
     id="path1" />
</svg>
