<?xml version="1.0" encoding="UTF-8" standalone="no"?>
<svg
   width="36"
   height="36"
   viewBox="0 0 9.525 9.525"
   version="1.1"
   id="svg8"
   xmlns="http://www.w3.org/2000/svg"
   xmlns:svg="http://www.w3.org/2000/svg"
   xmlns:rdf="http://www.w3.org/1999/02/22-rdf-syntax-ns#"
   xmlns:cc="http://creativecommons.org/ns#"
   xmlns:dc="http://purl.org/dc/elements/1.1/">
  <defs
     id="defs2" />
  <metadata
     id="metadata5">
    <rdf:RDF>
      <cc:Work
         rdf:about="">
        <dc:format>image/svg+xml</dc:format>
        <dc:type
           rdf:resource="http://purl.org/dc/dcmitype/StillImage" />
      </cc:Work>
    </rdf:RDF>
  </metadata>
  <path
     id="path2"
     style="fill:#8cb6f8;fill-opacity:1;stroke:none;stroke-width:0;stroke-dasharray:none"
     d="M 4.7624315,1.5874998 A 3.1749887,3.1749887 0 0 0 1.5874998,4.7624315 3.1749887,3.1749887 0 0 0 4.7624315,7.9375002 3.1749887,3.1749887 0 0 0 7.9375002,4.7624315 3.1749887,3.1749887 0 0 0 4.7624315,1.5874998 Z m 0.3859796,0.8947398 c 0.2486543,0 0.4637771,0.2082866 0.4637771,0.4569408 0,0.2486543 -0.2084024,0.4503777 -0.4637771,0.4503777 -0.2486542,0 -0.4435417,-0.2016819 -0.4435417,-0.4637769 0,-0.2352135 0.208328,-0.4435416 0.4435417,-0.4435416 z M 5.3433835,3.9809014 4.7318047,6.2255442 c -0.020161,0.08065 -0.060433,0.309151 -0.060433,0.349474 0,0.05376 0.047004,0.100767 0.1007675,0.100767 0.1008059,0 0.2554122,-0.141112 0.4301424,-0.403207 l 0.094068,-0.134402 0.1478015,0.09407 c -0.470427,0.70564 -0.7190299,0.913881 -1.1222532,0.913881 -0.2755358,0 -0.4637769,-0.174651 -0.4637769,-0.423306 0,-0.08737 0.033605,-0.275606 0.087368,-0.463777 L 4.3352969,4.814251 c 0.026882,-0.1142467 0.047034,-0.2150417 0.047034,-0.2688049 0,-0.1411282 -0.1075311,-0.1949723 -0.3965074,-0.1949723 V 4.1690374 c 0.5241901,-0.040322 0.9946588,-0.1074913 1.35756,-0.188136 z" />
  <path
     style="fill:none;stroke:none;stroke-width:0;stroke-linecap:round;stroke-linejoin:round;stroke-miterlimit:4;stroke-dasharray:none;stroke-opacity:1"
     d="M 0,9.525 H 9.525 V 0 H 0 Z"
     id="path1" />
</svg>
