<?xml version="1.0" encoding="UTF-8" standalone="no"?>
<svg
   width="36"
   height="36"
   viewBox="0 0 9.525 9.525"
   version="1.1"
   id="svg8"
   xmlns="http://www.w3.org/2000/svg"
   xmlns:svg="http://www.w3.org/2000/svg"
   xmlns:rdf="http://www.w3.org/1999/02/22-rdf-syntax-ns#"
   xmlns:cc="http://creativecommons.org/ns#"
   xmlns:dc="http://purl.org/dc/elements/1.1/">
  <defs
     id="defs2" />
  <metadata
     id="metadata5">
    <rdf:RDF>
      <cc:Work
         rdf:about="">
        <dc:format>image/svg+xml</dc:format>
        <dc:type
           rdf:resource="http://purl.org/dc/dcmitype/StillImage" />
      </cc:Work>
    </rdf:RDF>
  </metadata>
  <path
     id="path2"
     style="fill:none;stroke:#000000;stroke-width:0.79375;stroke-linecap:round;stroke-linejoin:round;stroke-miterlimit:4;stroke-dasharray:none;stroke-opacity:1"
     d="m 7.6729165,3.0432751 h -3.307786 m 3.704573,0.3965913 c 0.0045,-0.2117693 -0.18395,-0.4026779 -0.396773,-0.396581 m 0.396773,4.1005463 V 3.4398664 m -0.396787,4.1005563 c 0.212252,0.0055 0.402057,-0.184059 0.396773,-0.396574 M 1.8521441,7.5404227 H 7.6729165 M 1.4553568,7.1438317 c -0.00599,0.211506 0.1844501,0.403847 0.3967875,0.396579 M 1.4553568,2.3810659 V 7.1438317 M 1.8521441,1.9844747 C 1.6403438,1.9795331 1.4492326,2.168322 1.4553569,2.3810636 M 3.9683433,1.9844747 H 1.8521441 M 4.3651305,2.3810659 C 4.3701393,2.1689888 4.1808577,1.978981 3.9683258,1.9844769 M 4.3651305,3.0432751 V 2.3810659" />
  <path
     style="fill:none;stroke:none;stroke-width:0;stroke-linecap:round;stroke-linejoin:round;stroke-miterlimit:4;stroke-dasharray:none;stroke-opacity:1"
     d="M 0,9.525 H 9.525 V 0 H 0 Z"
     id="path1" />
</svg>
