<?xml version="1.0" encoding="UTF-8" standalone="no"?>
<svg
   width="36"
   height="36"
   viewBox="0 0 9.525 9.525"
   version="1.1"
   id="svg8"
   xmlns="http://www.w3.org/2000/svg"
   xmlns:svg="http://www.w3.org/2000/svg"
   xmlns:rdf="http://www.w3.org/1999/02/22-rdf-syntax-ns#"
   xmlns:cc="http://creativecommons.org/ns#"
   xmlns:dc="http://purl.org/dc/elements/1.1/">
  <defs
     id="defs2" />
  <metadata
     id="metadata5">
    <rdf:RDF>
      <cc:Work
         rdf:about="">
        <dc:format>image/svg+xml</dc:format>
        <dc:type
           rdf:resource="http://purl.org/dc/dcmitype/StillImage" />
      </cc:Work>
    </rdf:RDF>
  </metadata>
  <path
     style="fill:none;stroke:#8ab4f8;stroke-width:0.77986;stroke-linecap:round;stroke-linejoin:round;stroke-miterlimit:4;stroke-dasharray:none;stroke-opacity:1"
     d="M 1.97743,7.5475702 4.1079867,5.4170133"
     id="path3" />
  <path
     style="fill:none;stroke:#8ab4f8;stroke-width:0.793758;stroke-linecap:round;stroke-linejoin:round;stroke-miterlimit:4;stroke-dasharray:none;stroke-opacity:1"
     d="m 7.5406284,3.9694523 -0.0014,-0.065936 -0.00281,-0.067337 -0.00561,-0.065935 -0.00843,-0.065935 -0.00983,-0.064533 L 7.5013149,3.5738398 7.4858764,3.5093081 7.4704408,3.4447754 7.4507935,3.3816461 7.4311463,3.3185168 7.4073013,3.2553885 7.3834452,3.1950653 7.3567806,3.1333384 7.3273096,3.074418 7.2964354,3.0154975 7.264158,2.9579797 7.2290743,2.9018646 7.1925863,2.8457495 7.153292,2.7924408 7.1139977,2.7391311 7.071897,2.6886276 7.0283921,2.6381242 6.9820808,2.5890235 6.9357695,2.5427281 6.8866519,2.4978365 6.8375343,2.4543474 6.7856092,2.4122611 6.7336842,2.3715774 6.6789529,2.3337002 6.6242214,2.2958229 6.5680868,2.2621537 6.5091458,2.2284843 6.4516071,2.1976215 6.3912619,2.1695638 6.3309169,2.1415067 6.2691686,2.1176568 6.2074204,2.0938079 6.1442689,2.0741672 6.0811174,2.0545265 6.0165627,2.0390951 5.952008,2.025066 5.88605,2.012439 5.820091,2.002629 5.755536,1.994209 5.688174,1.988589 5.622215,1.985789 5.556257,1.984379 5.490298,1.985789 5.42434,1.988589 5.356978,1.994209 5.292423,2.002629 5.226464,2.012439 5.160506,2.025066 5.095951,2.039095 5.031396,2.054526 4.968244,2.074167 4.905092,2.093808 4.843344,2.117657 4.781596,2.141507 4.721251,2.169564 4.660906,2.197621 4.603369,2.228484 4.544427,2.262154 4.488293,2.295824 4.433562,2.333701 4.378831,2.371578 4.326906,2.412262 4.274982,2.454348 4.225863,2.497837 4.176746,2.542729 4.130434,2.589024 4.084122,2.638124 4.040617,2.688628 3.998516,2.739132 3.959221,2.792441 3.919926,2.845749 3.883439,2.901864 3.848354,2.957979 3.816077,3.015497 3.785203,3.074417 3.755732,3.133337 3.729068,3.195064 3.705212,3.255387 3.681356,3.318516 3.661709,3.381645 3.642062,3.444774 3.626624,3.509307 3.611185,3.573839 3.599959,3.639775 l -0.00983,0.064533 -0.00843,0.065935 -0.00561,0.065935 -0.00281,0.067337 -0.0014,0.065936 0.0014,0.065935 0.00281,0.065935 0.00561,0.065936 0.00843,0.065935 0.00983,0.065935 0.011226,0.065935 0.015439,0.064533 0.015438,0.064532 0.019647,0.063129 0.019647,0.063129 0.023856,0.061727 0.023856,0.061727 0.026664,0.060323 0.029471,0.060323 0.030874,0.05892 L 3.848354,4.980923 3.883439,5.037038 3.919926,5.091751 3.959221,5.146464 3.998516,5.19837 4.040617,5.250276 4.084122,5.30078 4.130434,5.348478 4.176746,5.396175 4.225863,5.441067 4.274982,5.484556 4.326906,5.526642 4.378831,5.567326 4.433562,5.605203 4.488293,5.641678 4.544427,5.67675 4.603369,5.709015 4.660906,5.739879 4.721251,5.769339 4.781596,5.795994 4.843344,5.821247 4.905092,5.843692 4.968244,5.864735 5.031396,5.882971 5.095951,5.899805 5.160506,5.913834 5.226464,5.92646 5.292423,5.93627 5.356978,5.94329 5.42434,5.94891 5.490298,5.95312 H 5.556257 5.622215 L 5.688174,5.94891 5.755536,5.94329 5.820091,5.93627 5.88605,5.92646 5.952008,5.913834 6.016563,5.899805 6.081118,5.882971 6.14427,5.864735 6.207422,5.843692 6.26917,5.821247 6.330918,5.795994 6.391263,5.769339 6.451608,5.739879 6.509147,5.709015 6.568088,5.67675 6.624222,5.641678 6.678953,5.605203 6.733684,5.567326 6.785609,5.526642 6.837534,5.484556 6.886651,5.441067 6.935769,5.396175 6.982081,5.348478 7.028393,5.30078 7.071898,5.250276 7.113999,5.19837 7.153293,5.146464 7.192588,5.091751 7.229076,5.037038 7.26416,4.980923 7.296437,4.923405 7.327311,4.864485 7.356782,4.804162 7.383446,4.743839 7.407302,4.682112 7.431158,4.620385 7.450805,4.557256 7.470452,4.494127 7.48589,4.429595 7.501329,4.365062 7.512558,4.299127 7.522388,4.233192 7.530818,4.167257 7.536428,4.101321 7.539238,4.035386 Z"
     id="path2" />
  <path
     style="fill:none;stroke:none;stroke-width:0;stroke-linecap:round;stroke-linejoin:round;stroke-miterlimit:4;stroke-dasharray:none;stroke-opacity:1"
     d="M 0,9.525 H 9.525 V 0 H 0 Z"
     id="path1" />
</svg>
