<?xml version="1.0" encoding="UTF-8" standalone="no"?>
<svg
   width="36"
   height="36"
   viewBox="0 0 9.525 9.525"
   version="1.1"
   id="svg8"
   xmlns="http://www.w3.org/2000/svg"
   xmlns:svg="http://www.w3.org/2000/svg"
   xmlns:rdf="http://www.w3.org/1999/02/22-rdf-syntax-ns#"
   xmlns:cc="http://creativecommons.org/ns#"
   xmlns:dc="http://purl.org/dc/elements/1.1/">
  <defs
     id="defs2" />
  <metadata
     id="metadata5">
    <rdf:RDF>
      <cc:Work
         rdf:about="">
        <dc:format>image/svg+xml</dc:format>
        <dc:type
           rdf:resource="http://purl.org/dc/dcmitype/StillImage" />
      </cc:Work>
    </rdf:RDF>
  </metadata>
  <path
     style="fill:none;stroke:none;stroke-width:0;stroke-linecap:round;stroke-linejoin:round;stroke-miterlimit:4;stroke-dasharray:none;stroke-opacity:1"
     d="M 0,9.525 H 9.525 V 0 H 0 Z"
     id="path2" />
  <path
     id="path1"
     style="fill:#8ab4f8;fill-opacity:1;stroke:none;stroke-width:0;stroke-linecap:round;stroke-linejoin:round;stroke-miterlimit:4;stroke-dasharray:none;stroke-opacity:1"
     d="M 4.7625056,1.5874998 C 4.601713,1.5874541 4.4409721,1.5996153 4.2818463,1.6241479 L 4.112419,2.4706097 C 3.9352556,2.5230289 3.7630716,2.5922095 3.6016758,2.6824304 L 2.8829431,2.2025863 C 2.6235891,2.3935262 2.3946102,2.6236511 2.2029094,2.8823539 L 2.6830217,3.6021881 C 2.5932967,3.7635389 2.5216312,3.9351233 2.4709299,4.1126636 L 1.6228363,4.2819559 c -0.04704,0.3180233 -0.047192,0.6430423 0,0.9610553 l 0.8480936,0.1692925 c 0.050564,0.1780577 0.1232306,0.3495827 0.2120918,0.5118427 l -0.4801123,0.718467 c 0.1910892,0.259035 0.42108,0.488602 0.6800337,0.679768 l 0.7187327,-0.479844 c 0.1613307,0.0902 0.3336314,0.159566 0.5107432,0.211957 l 0.1694273,0.847692 c 0.318176,0.04726 0.6431246,0.04691 0.9613186,0 l 0.1680598,-0.847692 c 0.1778312,-0.05177 0.3499392,-0.122392 0.5121112,-0.211957 l 0.718732,0.479844 c 0.258594,-0.191674 0.488259,-0.421238 0.680034,-0.679768 l -0.480112,-0.718467 c 0.08995,-0.161977 0.159679,-0.334245 0.212091,-0.5118427 l 0.846726,-0.1692925 c 0.04901,-0.3180672 0.04884,-0.6429685 0,-0.9610553 L 7.0540809,4.1126636 C 7.0015359,3.9355711 6.9328019,3.7632843 6.8419899,3.6021881 L 7.3221019,2.8823539 C 7.1296539,2.6240987 6.9011559,2.3941078 6.6420679,2.2025863 L 5.9233359,2.6824304 C 5.7611829,2.5928763 5.5890479,2.5223756 5.4112247,2.4706097 L 5.2431649,1.6241479 C 5.0840353,1.5997982 4.9232983,1.5875456 4.7625056,1.5874998 Z m 0.052647,1.5831159 c 0.8217943,0.00877 1.5589683,0.7676455 1.5348273,1.5925517 0.0062,0.3182348 -0.09881,0.6339466 -0.278413,0.895144 -0.360425,0.56463 -1.1086015,0.818623 -1.7451416,0.632863 C 3.6124548,6.1115084 3.1162166,5.3684418 3.1769453,4.6428303 3.2100303,3.8472525 3.9474978,3.1754041 4.7354301,3.1721201 c 0.026663,-0.0013 0.053213,-0.0018 0.079723,-0.00151 z" />
</svg>
